<?xml version="1.0" standalone="no"?>
<!DOCTYPE svg PUBLIC "-//W3C//DTD SVG 20010904//EN"
 "http://www.w3.org/TR/2001/REC-SVG-20010904/DTD/svg10.dtd">
<svg version="1.0" xmlns="http://www.w3.org/2000/svg"
 width="1224.000000pt" height="1224.000000pt" viewBox="0 0 1224.000000 1224.000000"
 preserveAspectRatio="xMidYMid meet">
<metadata>
Created by potrace 1.11, written by Peter Selinger 2001-2013
</metadata>
<g transform="translate(0.000000,1224.000000) scale(0.100000,-0.100000)"
fill="#000000" stroke="none">
<path d="M8068 12235 c-2 -2 -28 -5 -58 -9 -30 -3 -75 -9 -100 -13 -25 -3 -55
-7 -67 -7 -13 -1 -23 -3 -23 -6 0 -4 -11 -7 -25 -8 -14 -1 -36 -4 -50 -5 -14
-1 -25 -5 -25 -9 0 -4 -9 -5 -20 -3 -11 2 -20 1 -20 -3 0 -4 -10 -8 -23 -10
-12 -1 -74 -17 -137 -37 -63 -20 -122 -38 -130 -40 -8 -2 -16 -4 -17 -5 -2 -2
-6 -3 -10 -5 -5 -1 -21 -7 -36 -13 -16 -7 -31 -12 -33 -12 -3 0 -30 -11 -60
-25 -30 -14 -57 -25 -61 -25 -11 0 -344 -167 -408 -204 -33 -20 -79 -46 -102
-58 -24 -12 -43 -26 -43 -30 0 -4 -7 -8 -15 -8 -8 0 -15 -4 -15 -10 0 -5 -4
-10 -9 -10 -15 0 -111 -62 -111 -71 0 -5 -3 -8 -7 -7 -9 3 -96 -53 -101 -64
-2 -5 -10 -8 -17 -8 -7 0 -15 -3 -17 -7 -1 -5 -32 -28 -68 -53 -36 -24 -72
-50 -80 -57 -8 -6 -64 -49 -125 -94 -60 -45 -117 -88 -125 -96 -8 -7 -33 -28
-56 -46 -100 -79 -133 -107 -194 -160 -14 -13 -53 -45 -87 -74 -34 -28 -59
-54 -56 -57 4 -3 1 -6 -5 -6 -6 0 -24 -12 -40 -27 -17 -16 -85 -80 -153 -143
-197 -184 -406 -398 -579 -590 -41 -46 -85 -95 -98 -108 -12 -14 -41 -48 -65
-75 -23 -28 -46 -55 -52 -61 -5 -6 -32 -38 -60 -71 -27 -33 -58 -69 -67 -80
-33 -39 -219 -270 -236 -293 -9 -12 -22 -28 -28 -35 -5 -6 -39 -50 -74 -97
-36 -47 -68 -89 -72 -95 -27 -34 -65 -86 -78 -105 -8 -12 -20 -28 -25 -34 -6
-6 -33 -42 -60 -81 -27 -38 -54 -73 -59 -77 -7 -5 -7 -8 -1 -8 6 0 5 -4 -2 -8
-21 -13 -403 -583 -403 -600 0 -6 -3 -12 -7 -14 -12 -5 -192 -289 -269 -423
-15 -27 -32 -51 -36 -53 -4 -2 -8 -12 -8 -23 0 -10 -4 -19 -10 -19 -5 0 -12
-11 -16 -25 -3 -14 -10 -25 -14 -25 -4 0 -12 -13 -18 -28 -5 -16 -17 -36 -27
-45 -9 -9 -14 -17 -10 -17 3 0 -3 -13 -14 -29 -11 -15 -18 -31 -14 -35 3 -3 1
-6 -5 -6 -7 0 -12 -6 -12 -14 0 -8 -3 -16 -7 -18 -5 -1 -16 -18 -26 -37 -10
-19 -43 -82 -74 -140 -55 -104 -230 -447 -232 -456 -1 -3 -16 -35 -33 -72 -18
-38 -33 -70 -33 -73 -1 -3 -13 -30 -27 -60 -21 -46 -53 -119 -117 -275 -16
-37 -65 -170 -67 -180 -1 -5 -14 -38 -27 -72 -14 -35 -23 -63 -21 -63 2 0 -2
-13 -11 -30 -8 -16 -15 -31 -15 -32 1 -2 -1 -10 -4 -18 -3 -8 -11 -35 -17 -60
-15 -55 -14 -52 -22 -70 -8 -19 -47 -163 -53 -197 -3 -14 -9 -34 -15 -45 -5
-10 -8 -18 -5 -18 3 0 0 -15 -5 -32 -5 -18 -12 -46 -15 -63 -3 -16 -7 -43 -11
-60 -35 -189 -55 -503 -38 -607 11 -66 12 -70 30 -123 46 -137 186 -314 281
-356 79 -35 148 -25 194 28 20 22 30 43 27 54 -3 11 -2 21 3 24 10 6 0 77 -22
144 -10 32 -6 210 7 274 3 15 7 37 9 50 28 145 118 409 218 637 14 30 35 80
48 110 37 87 293 594 303 601 4 3 9 12 10 20 2 8 7 21 12 29 6 8 15 24 21 35
10 20 57 105 99 180 12 22 32 56 43 75 12 19 26 44 31 55 5 11 39 69 75 128
36 60 66 113 66 118 0 5 5 9 10 9 6 0 10 4 10 9 0 12 173 293 207 336 4 6 17
26 27 45 11 19 22 37 26 40 3 3 21 30 40 60 19 30 37 57 40 60 3 3 37 52 75
110 38 58 72 107 75 110 3 3 19 25 35 50 16 25 70 101 119 170 49 69 101 142
115 163 13 20 28 37 33 37 4 0 7 3 5 8 -1 4 4 14 11 22 7 8 31 40 54 70 22 30
43 57 47 60 3 3 26 32 50 65 25 33 47 62 51 65 3 3 19 23 35 45 17 22 32 42
35 45 3 3 34 41 70 85 35 44 72 89 81 100 10 11 48 56 86 100 37 44 72 85 78
91 5 6 33 38 62 71 29 33 65 73 80 90 15 17 69 75 118 129 155 170 507 515
653 640 19 16 47 41 63 55 15 14 54 48 85 75 31 27 62 54 68 59 14 13 126 106
146 122 26 21 103 84 149 121 24 21 54 44 65 52 12 8 26 19 32 25 6 5 23 19
39 30 15 11 39 29 54 41 73 59 211 160 317 235 65 46 121 87 122 91 2 4 8 8
13 8 10 0 103 62 107 73 2 4 10 7 17 7 7 0 15 4 17 8 2 4 57 42 123 82 66 41
122 78 123 82 2 5 8 8 13 8 6 0 48 22 94 50 83 48 344 181 381 193 10 3 37 13
59 22 22 9 49 18 60 20 11 3 31 9 45 14 50 19 200 47 200 37 0 -35 -150 -338
-236 -476 -22 -36 -43 -72 -47 -80 -4 -8 -15 -27 -25 -41 -9 -15 -35 -55 -57
-90 -21 -35 -76 -120 -122 -188 -46 -68 -83 -128 -83 -132 0 -4 -3 -9 -7 -11
-5 -1 -28 -32 -52 -68 -50 -73 -330 -452 -340 -460 -4 -3 -22 -25 -41 -50 -19
-25 -37 -47 -40 -50 -3 -3 -25 -30 -50 -60 -25 -30 -47 -57 -50 -60 -3 -3 -24
-27 -45 -55 -22 -27 -43 -52 -46 -55 -3 -3 -28 -32 -54 -65 -26 -33 -53 -64
-59 -70 -6 -5 -29 -32 -51 -59 -21 -27 -48 -60 -60 -72 -11 -12 -54 -60 -95
-105 -95 -106 -412 -422 -514 -514 -94 -85 -123 -109 -236 -205 -14 -12 -36
-31 -50 -43 -14 -12 -43 -35 -65 -52 -72 -54 -134 -126 -167 -193 -42 -84 -47
-178 -17 -292 41 -156 114 -262 215 -311 129 -62 347 -11 590 137 118 73 132
81 219 129 39 20 75 40 80 43 6 4 17 7 25 9 8 1 16 7 18 12 2 6 11 11 21 11 9
0 22 5 29 12 7 7 12 8 12 3 0 -6 3 -6 8 0 7 10 163 80 222 100 3 1 13 5 22 9
9 4 22 9 30 10 7 2 22 6 33 10 77 29 97 36 117 41 13 2 65 16 116 30 52 14 98
23 103 20 5 -4 9 -2 9 3 0 5 6 9 13 9 19 2 82 11 82 13 0 1 11 3 25 5 14 1 41
6 60 10 19 4 51 8 70 10 19 2 55 6 80 9 107 16 249 26 419 31 160 5 612 6 671
1 25 -2 88 -7 140 -11 52 -4 103 -9 115 -11 11 -2 42 -6 69 -10 46 -5 100 -15
151 -27 42 -11 131 -50 187 -83 33 -18 63 -34 69 -34 5 0 12 -7 15 -15 4 -8
11 -15 18 -15 13 0 92 -80 123 -125 31 -44 83 -150 83 -168 0 -9 5 -28 12 -44
6 -15 12 -33 13 -39 2 -6 10 -36 18 -65 14 -50 39 -163 51 -234 10 -56 18
-140 21 -213 l3 -72 -37 -19 c-30 -16 -123 -47 -166 -57 -27 -6 -84 -16 -112
-20 -18 -2 -52 -8 -75 -13 -24 -6 -59 -13 -78 -16 -19 -3 -82 -14 -140 -25
-58 -11 -121 -22 -140 -24 -34 -5 -68 -11 -120 -22 -14 -3 -34 -7 -45 -9 -11
-2 -29 -6 -40 -8 -25 -6 -107 -21 -120 -23 -5 0 -17 -3 -25 -6 -8 -3 -42 -12
-75 -19 -75 -16 -71 -15 -125 -28 -25 -7 -54 -14 -65 -16 -11 -2 -40 -9 -65
-15 -25 -7 -52 -13 -60 -15 -8 -2 -15 -4 -15 -5 0 -1 -11 -3 -25 -6 -25 -4
-61 -14 -200 -56 -41 -12 -79 -23 -85 -24 -5 0 -17 -3 -25 -6 -8 -4 -94 -30
-190 -59 -96 -29 -179 -56 -185 -59 -10 -7 -59 -21 -70 -20 -3 0 -19 -7 -35
-15 -17 -9 -30 -13 -30 -9 0 4 -6 2 -12 -3 -7 -6 -51 -23 -98 -38 -47 -15
-107 -38 -135 -50 -27 -12 -53 -23 -57 -24 -14 -3 -38 -11 -55 -18 -10 -3 -20
-7 -23 -8 -25 -6 -385 -152 -459 -186 -24 -11 -64 -28 -90 -39 -25 -10 -81
-34 -124 -54 -43 -20 -80 -36 -82 -36 -4 0 -270 -126 -347 -165 -38 -19 -68
-31 -68 -27 0 4 -4 3 -8 -3 -4 -5 -70 -41 -147 -80 -77 -38 -174 -89 -217
-112 -43 -22 -78 -38 -78 -35 0 4 -4 2 -8 -4 -4 -6 -52 -35 -107 -64 -55 -30
-121 -66 -147 -82 -27 -15 -48 -24 -48 -20 0 4 -4 2 -8 -4 -4 -6 -45 -32 -92
-58 -47 -26 -92 -51 -100 -56 -110 -68 -456 -270 -462 -270 -4 0 -8 -4 -8 -8
0 -5 -12 -14 -27 -21 -34 -16 -167 -104 -171 -114 -2 -4 -7 -5 -12 -2 -4 3
-13 -2 -20 -10 -7 -8 -19 -15 -26 -15 -8 0 -14 -4 -14 -10 0 -5 -7 -10 -15
-10 -8 0 -15 -4 -15 -10 0 -5 -4 -10 -10 -10 -9 0 -212 -131 -255 -165 -10 -8
-23 -15 -27 -15 -4 0 -16 -7 -26 -16 -26 -23 -255 -179 -275 -187 -9 -3 -17
-10 -17 -15 0 -5 -16 -17 -35 -28 -19 -10 -35 -22 -35 -26 0 -5 -7 -8 -15 -8
-8 0 -15 -4 -15 -10 0 -5 -4 -10 -10 -10 -5 0 -19 -8 -31 -18 -43 -36 -59 -48
-113 -87 -31 -22 -56 -43 -56 -47 0 -4 -5 -8 -11 -8 -10 0 -89 -58 -109 -80
-3 -3 -23 -18 -45 -35 -22 -16 -45 -34 -51 -40 -6 -5 -26 -21 -44 -35 -18 -14
-41 -32 -50 -40 -10 -8 -37 -31 -61 -51 -110 -91 -129 -107 -142 -120 -8 -8
-41 -36 -73 -64 -32 -27 -78 -69 -102 -92 -24 -24 -45 -43 -48 -43 -10 0 -384
-380 -384 -390 0 -5 -7 -10 -15 -10 -8 0 -15 -3 -15 -7 0 -8 -7 -16 -100 -123
-52 -59 -157 -189 -208 -255 -86 -115 -152 -205 -152 -210 0 -3 -15 -26 -34
-52 -68 -96 -212 -349 -208 -365 1 -5 -2 -8 -8 -8 -5 0 -10 -4 -10 -10 0 -5
-14 -40 -31 -77 -31 -69 -45 -102 -48 -115 -1 -4 -10 -28 -21 -53 -11 -25 -20
-47 -20 -50 0 -3 -2 -10 -5 -17 -15 -47 -47 -168 -50 -193 -3 -16 -7 -41 -10
-55 -16 -71 -20 -128 -20 -265 0 -195 25 -311 97 -465 36 -75 97 -170 109
-170 5 0 9 -6 9 -13 0 -18 134 -152 206 -208 33 -24 61 -47 62 -51 2 -5 8 -8
14 -8 5 0 28 -13 51 -29 120 -82 393 -196 542 -226 11 -3 49 -12 85 -20 36 -9
81 -18 100 -20 19 -2 69 -10 110 -17 118 -20 577 -16 685 6 11 2 41 7 68 10
26 3 68 9 95 12 26 3 54 10 63 14 8 5 24 7 35 6 10 -2 24 -1 29 2 6 4 19 7 30
8 26 2 275 60 339 79 27 8 52 12 57 9 5 -3 9 0 9 6 0 7 6 10 13 7 6 -2 20 0
30 5 10 5 26 11 36 13 45 9 440 129 476 145 11 5 36 13 55 19 19 5 73 24 120
41 47 18 96 35 110 38 14 3 27 9 30 13 3 4 17 10 30 13 29 5 131 46 262 105
26 11 50 21 52 21 17 0 490 231 494 241 2 5 12 9 22 9 10 0 25 6 32 12 8 7 38
26 68 41 143 74 175 92 178 99 2 4 12 8 22 8 10 0 20 4 22 8 2 5 61 42 132 83
70 41 143 83 160 94 18 11 54 33 82 50 27 16 51 33 52 37 2 4 8 8 14 8 6 0 54
28 107 63 53 35 139 91 191 125 127 83 130 85 146 100 8 7 14 10 14 7 0 -4 13
4 29 17 16 12 45 33 63 46 18 12 64 45 101 72 37 28 70 50 72 50 3 0 13 7 23
16 9 8 87 67 172 131 85 64 157 120 158 124 2 5 8 9 14 9 5 0 15 6 22 12 7 7
30 27 50 43 21 17 47 37 58 47 10 9 38 31 60 50 23 18 52 42 64 53 13 11 36
30 51 42 15 12 37 30 48 40 11 10 54 47 95 82 41 36 87 76 101 90 15 14 57 53
95 86 234 207 691 675 920 944 16 18 46 52 67 76 33 38 168 204 239 295 15 19
59 78 98 130 38 52 73 100 78 105 15 19 208 310 215 325 4 8 13 24 20 35 67
111 120 202 121 211 1 7 7 18 13 25 19 25 103 199 103 214 0 8 5 15 10 15 6 0
10 5 10 11 0 5 11 34 24 62 95 210 116 258 116 273 0 8 5 14 10 14 6 0 10 5
10 11 0 17 104 273 113 280 5 3 8 8 6 10 -3 5 18 75 31 104 28 62 60 151 60
165 0 9 4 20 9 25 5 6 14 26 19 45 6 19 19 59 30 88 11 29 21 54 21 55 0 3 12
36 33 92 19 48 23 80 33 285 2 52 6 107 8 123 3 15 0 27 -7 27 -7 0 -7 3 -1 8
6 4 10 36 10 72 0 36 2 69 4 74 11 25 17 336 7 386 -4 19 -9 45 -11 57 -2 13
-6 26 -8 30 -3 5 -8 39 -12 78 -4 38 -8 72 -10 76 -2 3 -7 28 -10 55 -9 72
-85 377 -99 393 -6 8 -10 17 -9 20 7 18 -57 189 -119 321 -43 91 -145 250
-203 315 -19 22 -39 45 -44 50 -5 6 -41 39 -81 75 -40 36 -81 73 -91 83 -10 9
-22 17 -25 17 -3 0 -20 11 -38 25 -18 14 -38 25 -44 25 -7 0 -12 4 -12 8 0 5
-10 14 -22 20 -13 7 -41 23 -63 37 -147 91 -457 209 -625 239 -14 2 -36 7 -50
10 -26 6 -55 11 -125 23 -22 4 -59 7 -82 7 -24 1 -43 3 -43 6 0 4 -17 6 -37 5
-21 0 -42 1 -47 4 -5 2 -43 5 -85 6 -43 1 -83 5 -91 10 -7 5 -11 4 -8 -1 4 -5
-48 -9 -120 -10 -70 0 -170 -4 -222 -7 -52 -4 -140 -9 -195 -13 -55 -3 -120
-7 -145 -8 -25 -2 -48 -1 -52 1 -4 2 38 68 93 146 54 78 104 149 109 157 6 8
32 45 58 82 26 37 94 135 152 219 58 84 138 200 179 258 164 237 227 340 312
512 45 92 90 199 82 199 -3 0 -1 6 4 13 6 6 20 44 32 82 12 39 26 84 31 100 5
17 12 46 15 65 3 19 10 60 15 90 6 30 12 82 15 115 2 33 4 62 5 65 6 21 -3
265 -10 265 -1 0 -3 11 -5 25 -12 84 -38 165 -87 266 -22 46 -45 84 -49 84 -5
0 -9 5 -9 11 0 30 -189 229 -217 229 -7 0 -13 4 -13 8 0 7 -83 54 -100 57 -3
1 -21 8 -41 17 -79 34 -170 47 -331 46 -87 -1 -159 -2 -160 -3z m1633 -6242
c-11 -27 -41 -93 -67 -148 -27 -55 -49 -102 -49 -105 -1 -9 -153 -314 -188
-376 -42 -75 -152 -251 -220 -354 -48 -71 -274 -379 -287 -390 -3 -3 -21 -25
-40 -50 -19 -25 -48 -61 -65 -81 -62 -75 -110 -132 -120 -143 -6 -6 -37 -42
-70 -81 -33 -38 -67 -76 -75 -85 -8 -9 -62 -68 -120 -130 -165 -180 -471 -481
-600 -590 -14 -12 -41 -35 -61 -53 -19 -18 -59 -52 -88 -77 -29 -25 -70 -61
-91 -80 -21 -19 -53 -46 -72 -60 -18 -14 -39 -32 -48 -40 -9 -8 -39 -33 -68
-55 -28 -21 -52 -43 -52 -47 0 -4 -7 -8 -15 -8 -8 0 -15 -4 -15 -8 0 -4 -25
-25 -55 -47 -30 -22 -55 -43 -55 -47 0 -5 -6 -8 -14 -8 -8 0 -16 -4 -18 -8 -1
-4 -23 -23 -48 -42 -24 -19 -50 -39 -56 -45 -6 -5 -22 -17 -34 -25 -12 -8 -46
-33 -75 -55 -60 -45 -50 -38 -250 -180 -82 -59 -157 -110 -165 -113 -8 -3 -17
-8 -20 -12 -10 -13 -159 -110 -170 -110 -5 0 -10 -4 -10 -10 0 -5 -7 -10 -15
-10 -8 0 -15 -4 -15 -10 0 -5 -7 -10 -15 -10 -8 0 -15 -4 -15 -9 0 -5 -13 -14
-30 -21 -16 -7 -30 -16 -30 -21 0 -5 -6 -9 -13 -9 -7 0 -22 -7 -32 -15 -40
-30 -95 -64 -95 -58 0 3 -8 -1 -17 -9 -19 -16 -190 -120 -258 -157 -64 -35
-100 -56 -105 -61 -5 -5 -20 -13 -135 -74 -33 -17 -62 -33 -65 -36 -9 -10
-483 -252 -500 -255 -3 -1 -34 -15 -70 -32 -36 -17 -68 -30 -71 -30 -4 1 -16
-7 -28 -17 -12 -11 -21 -16 -21 -13 0 5 -30 -7 -175 -73 -22 -9 -89 -36 -150
-60 -60 -23 -124 -48 -142 -56 -17 -8 -37 -14 -45 -14 -8 0 -18 -3 -22 -7 -4
-5 -11 -8 -14 -8 -4 -1 -17 -6 -28 -13 -12 -6 -24 -9 -27 -5 -4 3 -12 1 -19
-4 -11 -9 -220 -79 -262 -88 -6 -1 -18 -5 -26 -8 -16 -6 -94 -28 -120 -33 -8
-2 -76 -16 -150 -32 -139 -31 -180 -38 -320 -56 -30 -4 -66 -9 -80 -11 -41 -7
-171 -17 -232 -19 -32 0 -58 -5 -58 -10 0 -5 -6 -4 -13 2 -7 6 -18 8 -24 4
-14 -9 -316 -7 -393 3 -85 10 -91 11 -155 24 -81 17 -125 32 -157 54 -29 19
-69 69 -72 90 -1 7 -5 18 -10 25 -12 20 -9 188 4 222 1 3 3 10 4 15 10 54 22
98 41 146 13 32 20 60 17 63 -3 3 -1 6 5 6 9 0 15 12 28 55 8 28 152 280 188
329 4 6 37 54 74 106 37 52 80 109 95 125 15 17 28 33 28 37 0 4 6 13 13 20 6
7 39 45 72 83 114 133 131 151 325 345 176 177 243 239 364 342 22 18 49 42
60 53 12 11 44 38 71 60 28 22 52 42 55 45 5 5 80 66 124 100 10 8 27 23 38
33 10 9 21 17 24 17 3 0 27 17 52 38 64 51 58 47 137 105 39 28 72 55 73 59 2
4 10 8 18 8 8 0 14 5 14 10 0 6 7 10 15 10 8 0 15 3 15 8 0 4 17 18 38 32 20
13 77 53 125 87 48 35 92 63 96 63 4 0 16 9 26 20 10 11 24 20 32 20 7 0 13 4
13 8 0 5 12 15 28 23 15 7 50 30 77 50 28 20 64 43 80 53 34 18 64 37 79 49
42 32 146 94 150 90 3 -3 8 2 12 11 3 9 11 16 17 16 6 0 40 19 76 42 100 63
116 72 120 69 2 -1 7 1 10 6 8 12 150 93 162 93 5 0 9 5 9 10 0 6 9 10 19 10
10 0 22 7 25 16 3 8 10 13 15 9 5 -3 12 -1 16 5 3 6 21 17 38 25 18 8 64 32
102 54 39 22 95 53 125 68 30 15 57 30 60 33 3 3 50 27 105 55 55 27 114 58
130 70 17 11 31 19 32 18 2 -2 81 35 175 81 95 46 196 94 223 106 28 13 92 42
143 66 52 24 96 44 98 44 2 0 27 11 56 24 164 74 653 274 653 267 0 -3 11 2
25 9 14 8 30 15 35 16 12 3 171 62 200 74 11 4 29 12 40 16 19 7 24 8 55 15 8
2 17 6 20 10 5 5 432 149 454 153 6 1 54 16 106 33 52 17 133 42 180 56 47 14
96 29 110 33 14 5 28 9 33 10 4 1 8 2 10 3 1 2 11 4 22 6 11 2 65 17 120 33
107 32 153 43 157 40 2 -1 12 3 23 9 11 6 37 14 59 17 21 4 42 9 47 12 5 3 17
7 26 9 10 2 72 17 138 34 66 16 131 32 145 35 14 2 46 9 73 15 26 6 64 14 83
17 20 3 46 8 58 10 21 5 31 7 92 19 18 3 63 12 100 19 100 20 96 22 75 -31z"/>
</g>
</svg>
