<svg xmlns="http://www.w3.org/2000/svg" viewBox="0 0 26.62 45.34"><defs><style>.cls-1{fill:#19181c;}</style></defs><title>Asset 3</title><g id="Layer_2" data-name="Layer 2"><g id="Laag_3" data-name="Laag 3"><path class="cls-1" d="M10.65,5.34,7.52,3.26a.79.79,0,0,0-.62-.12.78.78,0,0,0-.52.35.79.79,0,0,0-.12.62.82.82,0,0,0,.35.52L9.73,6.71a.83.83,0,0,0,1.14-.23A.8.8,0,0,0,11,5.86.86.86,0,0,0,10.65,5.34Z"/><path class="cls-1" d="M2.91,45.34H9.15a.83.83,0,0,0,0-1.65,2.3,2.3,0,0,1-2.3-2.3v-8.6l.18,0a6,6,0,0,0,5-5.93V17.47a.83.83,0,0,0-.82-.83H5a.83.83,0,1,0,0,1.65H10.4v8.54a4.38,4.38,0,0,1-8.75,0V10H10.4v3.34a.83.83,0,0,0,1.65,0V9.15a.83.83,0,0,0-.82-.83H.83A.83.83,0,0,0,0,9.15V26.83a6,6,0,0,0,5,5.93l.18,0v8.6a2.3,2.3,0,0,1-2.29,2.3.83.83,0,1,0,0,1.65Z"/><path class="cls-1" d="M14.13.83a.83.83,0,1,0-1.65,0V4a.83.83,0,0,0,1.65,0Z"/><path class="cls-1" d="M19.71,3.14a.44.44,0,0,0-.16,0,.86.86,0,0,0-.46.14L16,5.34a.82.82,0,0,0-.35.52.83.83,0,0,0,1.27.85L20,4.63a.82.82,0,0,0,.35-.52.84.84,0,0,0-.12-.62A.8.8,0,0,0,19.71,3.14Z"/><path class="cls-1" d="M17.47,45.34h6.24a.83.83,0,0,0,0-1.65,2.3,2.3,0,0,1-2.3-2.3v-8.6l.18,0a6,6,0,0,0,5-5.93V17.47a.83.83,0,0,0-.83-.83H19.55a.83.83,0,1,0,0,1.65H25v8.54a4.38,4.38,0,0,1-8.75,0V10H25v3.34a.83.83,0,0,0,1.66,0V9.15a.83.83,0,0,0-.83-.83H15.39a.83.83,0,0,0-.83.83V26.83a6,6,0,0,0,5,5.93l.18,0v8.6a2.3,2.3,0,0,1-2.29,2.3.83.83,0,1,0,0,1.65Z"/></g></g></svg>