<svg id="Laag_1" data-name="Laag 1" xmlns="http://www.w3.org/2000/svg" viewBox="0 0 530.17 170.49">
<defs><style>.cls-1{fill:#ffffff;}</style>
</defs><title>logo</title>
<path class="cls-1" d="M143.89,170.49a11,11,0,0,1-7.86-3.23c-2.88-2.87-2.92-5.7-2.92-12.77s0-9.91,2.92-12.78a11,11,0,0,1,7.86-3.23c5.66,0,9.64,3.54,10.7,9.2h-2.43c-.93-4.38-4-7.07-8.27-7.07a8.3,8.3,0,0,0-6,2.43c-2.26,2.25-2.44,4.73-2.44,11.45s.18,9.19,2.44,11.45a8.34,8.34,0,0,0,6,2.43c4.25,0,7.43-2.7,8.36-7.07h2.34c-1.06,5.65-5.13,9.19-10.7,9.19"/><path class="cls-1" d="M186.42,170.49c-6.33,0-10.79-4.33-10.79-10.48V138.75H178V159.7c0,5.22,3.31,8.67,8.4,8.67s8.4-3.45,8.4-8.67V138.75h2.38V160c0,6.15-4.46,10.48-10.78,10.48"/><polygon class="cls-1" points="219.75 138.75 222.13 138.75 222.13 168.1 238.84 168.1 238.84 170.22 219.75 170.22 219.75 138.75"/><rect class="cls-1" x="258.29" y="138.75" width="2.39" height="31.48"/><polygon class="cls-1" points="286.05 142.86 286.05 170.22 283.67 170.22 283.67 138.75 286.05 138.75 304.22 166.03 304.22 138.75 306.61 138.75 306.61 170.22 304.22 170.22 286.05 142.86"/><path class="cls-1" d="M345.37,162.58H330.7L328,170.22h-2.57L337,138.75h2.12l11.58,31.47h-2.56Zm-13.92-2.12h13.18L338,141.93Z"/><rect class="cls-1" x="369.47" y="138.75" width="2.39" height="31.48"/><path class="cls-1" d="M405.89,155.72h-8.66v14.5h-2.39V138.75h12c5.13,0,9,3,9,8.44,0,4.73-2.83,7.74-7.25,8.49l7.6,14.54h-2.78Zm.62-14.85h-9.28V153.6h9.28c4.07,0,6.94-2,6.94-6.36s-2.87-6.37-6.94-6.37"/><path class="cls-1" d="M468.47,78.35c-.86.71-2,1.69-3.16,2.75s-2.16,2-3.28,2.9c1.89-7.52,1.73-17.23-1.18-18.28a2.55,2.55,0,0,0-2.28.21c-1.22.71-2.26,2.46-3,4.92-.32.18-.63.33-1,.54a335.4,335.4,0,0,1-44.78,21.33c-8.41,3.3-13.49,3.84-16.11,1.44l-.17-.24c-1.77-4.61,1.33-8.51,4.07-12,.56-.71,1.12-1.41,1.62-2.1a9,9,0,0,0-.68-12c-2.68-2.65-6.14-2.3-10.28,1.06-3.57,2.89-7.09,6-10.49,9-2.92,2.56-6,5.21-9,7.73l-1.42,1.18c-4.79,4-9.31,7.72-14.41,11.21-1.22.84-6.41,3.52-8.38,2.17A1.93,1.93,0,0,1,344,97.9a38.71,38.71,0,0,1,4.44-9.63l.8-1.38a61.83,61.83,0,0,1,7.44-11c3-3.28,3.46-6.55,1.61-10.58-1-2.15-2.18-3.39-3.46-3.58s-2.79.91-3.69,1.9c-1.21,1.33-2.39,2.71-3.5,4.1l-.22.18a22.44,22.44,0,0,0-2.53,1.53l-.72.48c-1.58,1-3.18,2.08-4.85,3.19a248.86,248.86,0,0,1-38.18,21.61c-4.7,2.15-12.56,5.73-16.1,2.49l-.16-.24c-1.78-4.61,1.32-8.51,4.06-12,.56-.71,1.12-1.41,1.62-2.1a9,9,0,0,0-.67-12c-2.68-2.65-6.14-2.3-10.28,1.06-3.57,2.89-7.09,6-10.5,9-2.92,2.56-5.94,5.21-9,7.73l-1.45,1.2c-4.78,4-9.29,7.7-14.38,11.19-1.22.84-6.43,3.51-8.39,2.17a1.93,1.93,0,0,1-.6-2.31,38.36,38.36,0,0,1,4.44-9.63l.8-1.39a62.06,62.06,0,0,1,7.43-11c3-3.28,3.47-6.55,1.61-10.59-1-2.14-2.18-3.38-3.46-3.57s-2.79.91-3.68,1.89l-.58.66-.79.89-.49-.49A9.6,9.6,0,0,0,237.81,66l-1.18-.55A21.2,21.2,0,0,0,229.78,64l-1.55-.16c-16.76-1.34-35,4.59-51.31,16.69-.94.7-2.17,1.76-3.35,2.79s-2.34,2-3.53,3l-1.55,1.23.52-1.89c2.18-8,1.91-17.38-.53-18.28a2.14,2.14,0,0,0-1.86.15A4.84,4.84,0,0,0,165,69.32l-.43.7-.58-.58a9.92,9.92,0,0,0-1.46-1.2c-4.68-2.88-15.45-4.21-32.88-4.06h-.69l-4.1,0a47.35,47.35,0,0,0-5.79.43l-.58.1-.15-.57a28.55,28.55,0,0,1-.59-3.31A38,38,0,0,0,115,51.06a18,18,0,0,0-6.4-7.69c-4.92-3.42-11.28-5.09-18.91-4.83l-7,.45.75-1.08c4.76-6.82,7.63-11,8.33-12,3.36-5.13,5-10,4.87-14.59A12,12,0,0,0,94,3.56,9.24,9.24,0,0,0,86.12,0l-.65,0c-6.6.18-13.65,2.67-20.94,7.4-12.36,8-24.12,19.93-35,35.45-10.3,14.91-17,28-19.85,39a34.9,34.9,0,0,0-1.2,9.45,8,8,0,0,0,1.53,4.58c.81,1.17,2,2.71,3.61,2.66a1.7,1.7,0,0,0,1.67-1.86,5.55,5.55,0,0,0-.27-1.37A5.34,5.34,0,0,1,14.88,94c-.08-2.86,1.31-7.36,4.14-13.37A170.9,170.9,0,0,1,33,56.69,153.23,153.23,0,0,1,50.87,34.84,149.52,149.52,0,0,1,69.63,19.23c6.62-4.6,11.68-7.23,15.05-7.83l1.14-.2-.42,1.06a36.38,36.38,0,0,1-2.09,4.16A124,124,0,0,1,70.37,34.59,99.12,99.12,0,0,1,55.66,49.41c-2.39,1.65-2.84,3.44-2.81,4.65A6,6,0,0,0,53,55c.76,4.13,3,4.9,4.62,4.89a12.53,12.53,0,0,0,5.65-2.15,43.55,43.55,0,0,1,11.66-5.17,52.77,52.77,0,0,1,11.48-1.4l3-.06a58.05,58.05,0,0,1,9,.45A10.33,10.33,0,0,1,102.65,53l.21.12a7.26,7.26,0,0,1,3.62,4.69,25.74,25.74,0,0,1,1.34,7v1l-.35.17a11.22,11.22,0,0,1-2.71.82q-2.15.44-6.9,1.24c-20.61,3.8-42.57,13.5-65.25,28.81C22.24,103.91,14.19,111,8.68,117.91,2.76,125.31-.16,132,0,137.85c.16,5.62,3.33,9.91,9.42,12.77a29.83,29.83,0,0,0,13,2.36c5.44-.15,12.56-1.78,21.79-5,8.35-2.9,18-8,28.62-15.31A142.14,142.14,0,0,0,96,112.58c7.24-7.7,12.44-15,15.44-21.7,1.69-3.64,3.18-7.24,4.42-10.7l1.92-5.35,8-.73c1.69-.12,3.71-.22,6-.28,6.21-.18,12.24-.14,17.92.11,4,.18,7.44.23,10.21.16.95,0,1.72,0,2.41-.11l.84-.07L163,75c-.15.83-3.91,20.53-11.91,31-2.13,2.79-.47,7.41,2.45,9.67a5,5,0,0,0,3.18,1.34,3,3,0,0,0,.43,0,4.38,4.38,0,0,0,2.76-2.35c4.91-8.19,11.79-15.56,21.67-23.21,18.49-14.19,39.44-19.63,51.76-20h.31l.68,0c1-.07,2-.14,2.84-.25l1.51-.19-.91,1.2c-7.62,10-12,21-12.95,32.54-.3,3.6.68,6.53,2.85,8.48,2.38,2.14,6,2.91,10.21,2.17,11.93-1.72,29.11-16.2,35.57-22.94l.78-.82.31,1.08c2.33,8.32,5.42,13.19,9.7,15.32,4.11,2.06,9.46,1.72,16.84-1,6.36-2.39,10.83-4.91,17.87-9.32a184.54,184.54,0,0,0,17.27-12.79l1.88-1.56-.87,2.27a59.09,59.09,0,0,0-3.7,16.15c-.3,3.6.68,6.53,2.85,8.48,2.37,2.14,6,2.91,10.2,2.17,11.93-1.71,29.11-16.2,35.57-22.94l.79-.82.3,1.09c2.34,8.31,5.42,13.18,9.7,15.32,4.11,2.05,9.46,1.69,16.84-1.06,19.46-7.24,37.42-19.67,44-24.47-1.54,6.57-4.57,17.09-9.43,23.76-2.17,3-.41,7.81,2.61,10.11a5.42,5.42,0,0,0,3.43,1.38,4.26,4.26,0,0,0,.5-.06,4.65,4.65,0,0,0,3-2.58c4.47-7.86,11.12-15.28,20-23,15.93-13.85,31.6-18.55,48.25-19h.28l.77-.07c3.42-.26,7.49-.69,7-2.76S497.09,54.65,468.47,78.35ZM104,78.74c-.39.77-.77,1.58-1.17,2.47-3.2,7.47-9.43,15.89-18.5,25A149.8,149.8,0,0,1,57.4,126.77c-10,6-19.38,10.23-27.82,12.43a58.36,58.36,0,0,1-11.32,1.47h-.9a18.82,18.82,0,0,1-6.82-.85,2.88,2.88,0,0,1-1.45-2.66c-.08-3,1.74-7,5.43-11.9,5.27-6.82,13.12-13.75,23.35-20.6C55.1,93.11,75,84.46,97,79c1.4-.34,3.52-.77,6.31-1.3l1.22-.22Z"/></svg>