<?xml version="1.0" encoding="UTF-8"?>
<svg width="531px" height="171px" viewBox="0 0 531 171" version="1.1" xmlns="http://www.w3.org/2000/svg" xmlns:xlink="http://www.w3.org/1999/xlink">
    <g id="Page-1" stroke="none" strokeWidth="1" fill="none" fillRule="evenodd">
        <g id="logo" transform="translate(-1.000000, -1.000000)" fill="#313638">
            <path d="M144.89,171.49 C141.943109,171.509668 139.111557,170.346066 137.03,168.26 C134.15,165.39 134.11,162.56 134.11,155.49 C134.11,148.42 134.11,145.58 137.03,142.71 C139.111557,140.623934 141.943109,139.460332 144.89,139.48 C150.55,139.48 154.53,143.02 155.59,148.68 L153.16,148.68 C152.23,144.3 149.16,141.61 144.89,141.61 C142.643543,141.574541 140.478677,142.451312 138.89,144.04 C136.63,146.29 136.45,148.77 136.45,155.49 C136.45,162.21 136.63,164.68 138.89,166.94 C140.481245,168.524808 142.644399,169.400885 144.89,169.37 C149.14,169.37 152.32,166.67 153.25,162.3 L155.59,162.3 C154.53,167.95 150.46,171.49 144.89,171.49" id="Path"></path>
            <path d="M187.42,171.49 C181.09,171.49 176.63,167.16 176.63,161.01 L176.63,139.75 L179,139.75 L179,160.7 C179,165.92 182.31,169.37 187.4,169.37 C192.49,169.37 195.8,165.92 195.8,160.7 L195.8,139.75 L198.18,139.75 L198.18,161 C198.18,167.15 193.72,171.48 187.4,171.48" id="Path"></path>
            <polygon id="Path" points="220.75 139.75 223.13 139.75 223.13 169.1 239.84 169.1 239.84 171.22 220.75 171.22"></polygon>
            <rect id="Rectangle" x="259.29" y="139.75" width="2.39" height="31.48"></rect>
            <polygon id="Path" points="287.05 143.86 287.05 171.22 284.67 171.22 284.67 139.75 287.05 139.75 305.22 167.03 305.22 139.75 307.61 139.75 307.61 171.22 305.22 171.22"></polygon>
            <path d="M346.37,163.58 L331.7,163.58 L329,171.22 L326.43,171.22 L338,139.75 L340.12,139.75 L351.7,171.22 L349.14,171.22 L346.37,163.58 Z M332.45,161.46 L345.63,161.46 L339,142.93 L332.45,161.46 Z" id="Shape" fillRule="nonzero"></path>
            <rect id="Rectangle" x="370.47" y="139.75" width="2.39" height="31.48"></rect>
            <path d="M406.89,156.72 L398.23,156.72 L398.23,171.22 L395.84,171.22 L395.84,139.75 L407.84,139.75 C412.97,139.75 416.84,142.75 416.84,148.19 C416.84,152.92 414.01,155.93 409.59,156.68 L417.19,171.22 L414.41,171.22 L406.89,156.72 Z M407.51,141.87 L398.23,141.87 L398.23,154.6 L407.51,154.6 C411.58,154.6 414.45,152.6 414.45,148.24 C414.45,143.88 411.58,141.87 407.51,141.87 Z" id="Shape" fillRule="nonzero"></path>
            <path d="M469.47,79.35 C468.61,80.06 467.47,81.04 466.31,82.1 C465.15,83.16 464.15,84.1 463.03,85 C464.92,77.48 464.76,67.77 461.85,66.72 C461.099529,66.425682 460.254084,66.5035519 459.57,66.93 C458.35,67.64 457.31,69.39 456.57,71.85 C456.25,72.03 455.94,72.18 455.57,72.39 C441.190243,80.5954816 426.222659,87.7249718 410.79,93.72 C402.38,97.02 397.3,97.56 394.68,95.16 L394.51,94.92 C392.74,90.31 395.84,86.41 398.58,82.92 C399.14,82.21 399.7,81.51 400.2,80.82 C403.068857,77.2325784 402.775765,72.0603597 399.52,68.82 C396.84,66.17 393.38,66.52 389.24,69.88 C385.67,72.77 382.15,75.88 378.75,78.88 C375.83,81.44 372.75,84.09 369.75,86.61 L368.33,87.79 C363.54,91.79 359.02,95.51 353.92,99 C352.7,99.84 347.51,102.52 345.54,101.17 C344.871196,100.620121 344.650441,99.6921331 345,98.9 C346.031235,95.5015222 347.52525,92.261125 349.44,89.27 L350.24,87.89 C352.317904,83.9668673 354.812287,80.2789348 357.68,76.89 C360.68,73.61 361.14,70.34 359.29,66.31 C358.29,64.16 357.11,62.92 355.83,62.73 C354.55,62.54 353.04,63.64 352.14,64.63 C350.93,65.96 349.75,67.34 348.64,68.73 L348.42,68.91 C347.543949,69.363827 346.698781,69.8749361 345.89,70.44 L345.17,70.92 C343.59,71.92 341.99,73 340.32,74.11 C328.254325,82.4232647 315.478025,89.6546904 302.14,95.72 C297.44,97.87 289.58,101.45 286.04,98.21 L285.88,97.97 C284.1,93.36 287.2,89.46 289.94,85.97 C290.5,85.26 291.06,84.56 291.56,83.87 C294.431506,80.2850675 294.142732,75.1129959 290.89,71.87 C288.21,69.22 284.75,69.57 280.61,72.93 C277.04,75.82 273.52,78.93 270.11,81.93 C267.19,84.49 264.17,87.14 261.11,89.66 L259.66,90.86 C254.88,94.86 250.37,98.56 245.28,102.05 C244.06,102.89 238.85,105.56 236.89,104.22 C236.180814,103.680774 235.932871,102.726191 236.29,101.91 C237.317036,98.5099272 238.81131,95.2689674 240.73,92.28 L241.53,90.89 C243.606279,86.9682452 246.09719,83.2804889 248.96,79.89 C251.96,76.61 252.43,73.34 250.57,69.3 C249.57,67.16 248.39,65.92 247.11,65.73 C245.83,65.54 244.32,66.64 243.43,67.62 L242.85,68.28 L242.06,69.17 L241.57,68.68 C240.751525,67.9680865 239.81831,67.4000425 238.81,67 L237.63,66.45 C235.442817,65.5903397 233.127918,65.1003247 230.78,65 L229.23,64.84 C212.47,63.5 194.23,69.43 177.92,81.53 C176.98,82.23 175.75,83.29 174.57,84.32 C173.39,85.35 172.23,86.32 171.04,87.32 L169.49,88.55 L170.01,86.66 C172.19,78.66 171.92,69.28 169.48,68.38 C168.869701,68.1428187 168.184404,68.1980846 167.62,68.53 C166.937469,68.9802477 166.380131,69.596072 166,70.32 L165.57,71.02 L164.99,70.44 C164.542631,69.9944482 164.053747,69.5926252 163.53,69.24 C158.85,66.36 148.08,65.03 130.65,65.18 L129.96,65.18 L125.86,65.18 C123.923021,65.204761 121.989387,65.3483642 120.07,65.61 L119.49,65.71 L119.34,65.14 C119.078481,64.0492149 118.881473,62.9439655 118.75,61.83 C118.274336,58.4650152 117.349421,55.1790452 116,52.06 C114.636223,48.9433805 112.417162,46.2770403 109.6,44.37 C104.68,40.95 98.32,39.28 90.69,39.54 L83.69,39.99 L84.44,38.91 C89.2,32.09 92.07,27.91 92.77,26.91 C96.13,21.78 97.77,16.91 97.64,12.32 C97.6980917,9.5036474 96.7635371,6.75662323 95,4.56 C93.1248871,2.14169454 90.1741148,0.808604538 87.12,1 L86.47,1 C79.87,1.18 72.82,3.67 65.53,8.4 C53.17,16.4 41.41,28.33 30.53,43.85 C20.23,58.76 13.53,71.85 10.68,82.85 C9.84996637,85.9303483 9.44620624,89.1099593 9.48,92.3 C9.50607947,93.9478159 10.0404278,95.5473684 11.01,96.88 C11.82,98.05 13.01,99.59 14.62,99.54 C15.0947764,99.5337325 15.5452957,99.3291912 15.862512,98.9758844 C16.1797283,98.6225776 16.3347301,98.1527062 16.29,97.68 C16.2580355,97.2137875 16.1673177,96.7534786 16.02,96.31 C15.9194396,95.8807861 15.8724151,95.4407715 15.88,95 C15.8,92.14 17.19,87.64 20.02,81.63 C24.0239944,73.2845771 28.6993732,65.2782416 34,57.69 C39.2717089,49.872364 45.2537502,42.5580046 51.87,35.84 C57.6875245,30.134163 63.9617525,24.9134434 70.63,20.23 C77.25,15.63 82.31,13 85.68,12.4 L86.82,12.2 L86.4,13.26 C85.7928638,14.689866 85.0947681,16.079377 84.31,17.42 C80.5513098,23.8531246 76.2204572,29.9343914 71.37,35.59 C67.0021343,41.0341396 62.0714482,46.0016969 56.66,50.41 C54.27,52.06 53.82,53.85 53.85,55.06 C53.8750269,55.3768114 53.9251847,55.6911336 54,56 C54.76,60.13 57,60.9 58.62,60.89 C60.6505802,60.6452016 62.5903662,59.9070529 64.27,58.74 C67.8818738,56.4537643 71.8106666,54.7117524 75.93,53.57 C79.6938181,52.684151 83.5435985,52.2146656 87.41,52.17 L90.41,52.11 C93.4171282,52.026573 96.4261919,52.1770262 99.41,52.56 C100.91162,52.7242154 102.358953,53.2157626 103.65,54 L103.86,54.12 C105.678674,55.0974559 106.995135,56.8030371 107.48,58.81 C108.249105,61.0699067 108.700094,63.4258182 108.82,65.81 L108.82,66.81 L108.47,66.98 C107.604917,67.3666711 106.694335,67.6421976 105.76,67.8 C104.326667,68.0933333 102.026667,68.5066667 98.86,69.04 C78.25,72.84 56.29,82.54 33.61,97.85 C23.24,104.91 15.19,112 9.68,118.91 C3.76,126.31 0.84,133 1,138.85 C1.16,144.47 4.33,148.76 10.42,151.62 C14.5224483,153.368514 18.9647363,154.174961 23.42,153.98 C28.86,153.83 35.98,152.2 45.21,148.98 C53.56,146.08 63.21,140.98 73.83,133.67 C82.2552531,127.828527 90.0237886,121.092667 97,113.58 C104.24,105.88 109.44,98.58 112.44,91.88 C114.13,88.24 115.62,84.64 116.86,81.18 L118.78,75.83 L126.78,75.1 C128.47,74.98 130.49,74.88 132.78,74.82 C138.99,74.64 145.02,74.68 150.7,74.93 C154.7,75.11 158.14,75.16 160.91,75.09 C161.86,75.09 162.63,75.09 163.32,74.98 L164.16,74.91 L164,76 C163.85,76.83 160.09,96.53 152.09,107 C149.96,109.79 151.62,114.41 154.54,116.67 C155.407393,117.479888 156.534568,117.954862 157.72,118.01 C157.863149,118.020285 158.006851,118.020285 158.15,118.01 C159.366189,117.661983 160.372522,116.805142 160.91,115.66 C165.82,107.47 172.7,100.1 182.58,92.45 C201.07,78.26 222.02,72.82 234.34,72.45 L234.65,72.45 L235.33,72.45 C236.33,72.38 237.33,72.31 238.17,72.2 L239.68,72.01 L238.77,73.21 C231.15,83.21 226.77,94.21 225.82,105.75 C225.52,109.35 226.5,112.28 228.67,114.23 C231.05,116.37 234.67,117.14 238.88,116.4 C250.81,114.68 267.99,100.2 274.45,93.46 L275.23,92.64 L275.54,93.72 C277.87,102.04 280.96,106.91 285.24,109.04 C289.35,111.1 294.7,110.76 302.08,108.04 C308.44,105.65 312.91,103.13 319.95,98.72 C325.950231,94.795764 331.716672,90.5251912 337.22,85.93 L339.1,84.37 L338.23,86.64 C336.244318,91.8228506 334.998743,97.2596152 334.53,102.79 C334.23,106.39 335.21,109.32 337.38,111.27 C339.75,113.41 343.38,114.18 347.58,113.44 C359.51,111.73 376.69,97.24 383.15,90.5 L383.94,89.68 L384.24,90.77 C386.58,99.08 389.66,103.95 393.94,106.09 C398.05,108.14 403.4,107.78 410.78,105.03 C430.24,97.79 448.2,85.36 454.78,80.56 C453.24,87.13 450.21,97.65 445.35,104.32 C443.18,107.32 444.94,112.13 447.96,114.43 C448.906254,115.277792 450.120263,115.766227 451.39,115.81 C451.557704,115.799877 451.724662,115.779842 451.89,115.75 C453.224269,115.379586 454.324034,114.433788 454.89,113.17 C459.36,105.31 466.01,97.89 474.89,90.17 C490.82,76.32 506.49,71.62 523.14,71.17 L523.42,71.17 L524.19,71.1 C527.61,70.84 531.68,70.41 531.19,68.34 C530.7,66.27 498.09,55.65 469.47,79.35 Z M105,79.74 C104.61,80.51 104.23,81.32 103.83,82.21 C100.63,89.68 94.4,98.1 85.33,107.21 C77.1597443,115.059703 68.1253066,121.957142 58.4,127.77 C48.4,133.77 39.02,138 30.58,140.2 C26.8637691,141.058736 23.0723038,141.55109 19.26,141.67 L18.36,141.67 C16.0537645,141.80768 13.7418896,141.519543 11.54,140.82 C10.591686,140.279713 10.0302614,139.249789 10.09,138.16 C10.01,135.16 11.83,131.16 15.52,126.26 C20.79,119.44 28.64,112.51 38.87,105.66 C56.1,94.11 76,85.46 98,80 C99.4,79.66 101.52,79.23 104.31,78.7 L105.53,78.48 L105,79.74 Z" id="Shape" fillRule="nonzero"></path>
        </g>
    </g>
</svg>