<svg xmlns="http://www.w3.org/2000/svg" viewBox="0 0 43.67 37.65"><defs><style>.cls-1{fill:#b9b9b9;}</style></defs><title>Asset 4</title><g id="Layer_2" data-name="Layer 2"><g id="Laag_4" data-name="Laag 4"><path class="cls-1" d="M43.67,10.8A2.78,2.78,0,0,0,40.89,8H36.64V2.49A2.49,2.49,0,0,0,34.15,0a2.42,2.42,0,0,0-.79.13L25.5,2.75l-.1-.12a4.71,4.71,0,0,0-7.13,0l-.1.12L10.3.13A2.38,2.38,0,0,0,9.51,0,2.5,2.5,0,0,0,7,2.49V8H2.77A2.77,2.77,0,0,0,0,10.8v4a2.77,2.77,0,0,0,1.85,2.61l.16.06v17.4a2.78,2.78,0,0,0,2.77,2.77H38.89a2.78,2.78,0,0,0,2.77-2.77V20.83a.77.77,0,1,0-1.53,0V34.88a1.25,1.25,0,0,1-1.24,1.24H26.61V20.83a.77.77,0,1,0-1.53,0V36.12h-6.5V20.83a.77.77,0,0,0-.76-.77.78.78,0,0,0-.77.77V36.12H4.78a1.24,1.24,0,0,1-1.24-1.24V16.82a.78.78,0,0,0-.77-.77,1.24,1.24,0,0,1-1.24-1.24v-4A1.24,1.24,0,0,1,2.77,9.56H7.08l0,.17a2.5,2.5,0,0,0,2.39,1.83,2.38,2.38,0,0,0,.79-.13l4.75-1.58a.76.76,0,1,0-.48-1.45L9.82,10A.94.94,0,0,1,9,9.85a1,1,0,0,1-.41-.78V2.49a1,1,0,0,1,1.27-.91L17.38,4.1l-.07.22a4.8,4.8,0,0,0-.26,1.46,4.78,4.78,0,0,0,9.56,0,4.76,4.76,0,0,0-.25-1.46l-.07-.22,7.56-2.52a.93.93,0,0,1,.85.13,1,1,0,0,1,.41.78V9.07a1,1,0,0,1-.4.77,1,1,0,0,1-.86.14L29.1,8.4a.76.76,0,1,0-.48,1.45l4.75,1.59a2.59,2.59,0,0,0,.78.12,2.49,2.49,0,0,0,2.39-1.83l.05-.17h4.3a1.24,1.24,0,0,1,1.25,1.24v4a1.24,1.24,0,0,1-1.25,1.24H26.61V12.8a.77.77,0,0,0-1.53,0v3.25h-6.5V12.8a.76.76,0,0,0-.76-.76.77.77,0,0,0-.77.76v3.25H6.78a.77.77,0,0,0-.76.77.76.76,0,0,0,.76.76H40.89a2.78,2.78,0,0,0,2.78-2.77ZM21.83,9a3.25,3.25,0,1,1,3.25-3.25A3.26,3.26,0,0,1,21.83,9Z"/></g></g></svg>