<svg xmlns="http://www.w3.org/2000/svg" viewBox="0 0 37.65 41.46"><defs><style>.cls-1{fill:#19181c;}</style></defs><title>Asset 2</title><g id="Layer_2" data-name="Layer 2"><g id="Laag_2" data-name="Laag 2"><path class="cls-1" d="M18.83,16.2a.72.72,0,1,0,.71.71A.71.71,0,0,0,18.83,16.2Z"/><path class="cls-1" d="M18.83,27.64a.72.72,0,1,0,.71.71A.71.71,0,0,0,18.83,27.64Z"/><path class="cls-1" d="M18.83,31.45a.72.72,0,1,0,.71.72A.72.72,0,0,0,18.83,31.45Z"/><path class="cls-1" d="M18.83,20a.72.72,0,1,0,.71.72A.72.72,0,0,0,18.83,20Z"/><path class="cls-1" d="M18.83,23.83a.71.71,0,0,0-.72.71.72.72,0,1,0,1.43,0A.71.71,0,0,0,18.83,23.83Z"/><path class="cls-1" d="M21.69,41.46h6.67A2.63,2.63,0,0,0,31,38.84V19.77a.72.72,0,0,0-1.43,0V38.84A1.19,1.19,0,0,1,28.36,40h-6V26.53L29,6.66a.73.73,0,0,0-.36-.87c-1.44-.72-3.75-3.53-4.52-4.56a1.48,1.48,0,0,0-.3-.23A13.21,13.21,0,0,0,13.79,1a1.31,1.31,0,0,0-.31.25c-.76,1-3.07,3.82-4.51,4.54a.71.71,0,0,0-.35.86l6.63,20V40h-6A1.19,1.19,0,0,1,8.1,38.84V19.77a.72.72,0,0,0-1.43,0V38.84a2.63,2.63,0,0,0,2.62,2.62h9.54a.72.72,0,0,0,0-1.43H16.68V26.38l-1-10.48a.7.7,0,0,0-.77-.65.72.72,0,0,0-.65.78l.4,4.35-2.19-6.56h.32a2.49,2.49,0,0,0,.92-.23L16.89,12l.12.12a2.67,2.67,0,0,0,3.63,0l.12-.12,3.14,1.57a2.31,2.31,0,0,0,.92.22l.32,0L23,20.38l.4-4.35a.71.71,0,0,0-.65-.78h-.06a.7.7,0,0,0-.46.16.71.71,0,0,0-.25.49L21,26.45v14.3A.71.71,0,0,0,21.69,41.46Zm2.62-36V3.7l.41.47a17.23,17.23,0,0,0,2.63,2.48l.15.1-.44,1.33-.28-.41a2.24,2.24,0,0,0-1.87-1,1.77,1.77,0,0,0-.41,0l-.31.06ZM10.87,7.67l-.27.4-.45-1.32.15-.1a16.88,16.88,0,0,0,2.63-2.49l.42-.47V5.56l.11,1.22-.31-.06a1.84,1.84,0,0,0-.41,0A2.24,2.24,0,0,0,10.87,7.67Zm5.36,2.8,0,.26L13.11,12.3a.85.85,0,0,1-.35.08.8.8,0,0,1-.44-.13.84.84,0,0,1-.41-.69V8.92a.83.83,0,0,1,.83-.82.91.91,0,0,1,.37.08l3.15,1.58,0,.26a1.5,1.5,0,0,0,0,.22A1.79,1.79,0,0,0,16.23,10.47Zm2.6,1A1.19,1.19,0,1,1,20,10.24,1.19,1.19,0,0,1,18.83,11.43Zm1.93-2.95-.12-.12a2.67,2.67,0,0,0-3.63,0l-.12.12L15,7.51l-.19-2V2.15l.16,0a11.58,11.58,0,0,1,7.79,0l.16,0v2.3l-.31-.09A13.3,13.3,0,0,0,20.85,4a13,13,0,0,0-4,0,.72.72,0,0,0-.6.82.73.73,0,0,0,.29.47.71.71,0,0,0,.53.12,11.38,11.38,0,0,1,3.59,0,12.26,12.26,0,0,1,2,.53l.18.06-.14,1.54Zm4.13,3.9a.85.85,0,0,1-.35-.08l-3.15-1.57,0-.26a1.64,1.64,0,0,0,0-.23,1.79,1.79,0,0,0,0-.23l0-.25,3.15-1.58a.85.85,0,0,1,.8.05.83.83,0,0,1,.4.7v2.63a.81.81,0,0,1-.4.69A.84.84,0,0,1,24.89,12.38Z"/><path class="cls-1" d="M34.08,39.55h2.86a.71.71,0,0,0,.71-.71V12.16a4.54,4.54,0,0,0-3.28-4.35l-2-.57a.72.72,0,0,0-.89.49.71.71,0,0,0,.49.88l2,.57a3.12,3.12,0,0,1,2.24,3v26H34.08a.72.72,0,1,0,0,1.43Z"/><path class="cls-1" d="M6.1,8.27a.68.68,0,0,0,.07-.54.72.72,0,0,0-.89-.49l-2,.57A4.54,4.54,0,0,0,0,12.16V38.84a.71.71,0,0,0,.71.71H3.57a.72.72,0,1,0,0-1.43H1.43v-26a3.09,3.09,0,0,1,2.25-3l2-.58A.68.68,0,0,0,6.1,8.27Z"/><path class="cls-1" d="M18.83,35.26a.72.72,0,0,0-.72.72.72.72,0,1,0,.72-.72Z"/><path class="cls-1" d="M25.5,27.16h1.9a.72.72,0,1,0,0-1.43H25.5a.72.72,0,1,0,0,1.43Z"/></g></g></svg>