<?xml version="1.0" encoding="iso-8859-1"?>
<svg version="1.1" id="Capa_1" xmlns="http://www.w3.org/2000/svg" xmlns:xlink="http://www.w3.org/1999/xlink" x="0px" y="0px"
	 viewBox="0 0 512 512" style="enable-background:new 0 0 512 512;" xml:space="preserve" fill="#b9b9b9">
<g>
	<g>
		<circle cx="256.003" cy="223.152" r="8.57"/>
	</g>
</g>
<g>
	<g>
		<circle cx="292.779" cy="284.978" r="8.57"/>
	</g>
</g>
<g>
	<g>
		<circle cx="389.093" cy="287.785" r="8.57"/>
	</g>
</g>
<g>
	<g>
		<circle cx="359.129" cy="250.42" r="8.57"/>
	</g>
</g>
<g>
	<g>
		<circle cx="233.5" cy="258.989" r="8.57"/>
	</g>
</g>
<g>
	<g>
		<path d="M510.019,322.378c-2.315-3.622-6.263-5.784-10.562-5.784h-34.012L408.65,228.51c-2.242-3.478-6.88-4.474-10.356-2.236
			c-3.477,2.242-4.478,6.879-2.236,10.356l51.559,79.966H168.158l81.29-126.078c15.16,8.533,31.054,10.155,43.633,4.183
			c0.746-0.354,1.513-0.759,2.294-1.174c0.903-0.479,1.983-1.054,2.746-1.338c-0.011,1.001-0.072,2.128-0.117,2.961
			c-0.07,1.291-0.144,2.627-0.144,3.984c0,6.242,2.59,12.293,7.106,16.602c4.309,4.113,9.886,6.341,15.809,6.341
			c0.368,0,0.738-0.009,1.109-0.025c12.247-0.574,21.841-10.829,21.841-23.346c0-1.329-0.069-2.643-0.136-3.915
			c-0.08-1.512-0.161-3.061-0.097-4.354c0.89-0.131,2.083-0.212,2.905-0.269c1.138-0.078,2.312-0.158,3.508-0.325
			c4.226-0.589,8.362-2.376,12.503-5.406l8.908,13.816c2.243,3.479,6.881,4.476,10.356,2.236c3.477-2.242,4.478-6.879,2.236-10.356
			l-62.761-97.339c-0.862-1.336-1.905-2.51-3.081-3.506c-0.067-0.057-0.132-0.118-0.2-0.174c-0.063-0.052-0.13-0.099-0.194-0.149
			c-2.742-2.174-6.164-3.4-9.784-3.4c-4.353,0-8.422,1.766-11.359,4.826c-0.018,0.019-0.038,0.036-0.056,0.056
			c-0.019,0.02-0.036,0.041-0.054,0.061c-0.657,0.698-1.259,1.461-1.791,2.286L175.661,277.309
			c-12.408-20.23-34.553-33.923-59.99-34.367c-12.331-0.202-24.584,2.763-35.385,8.608c-3.64,1.97-4.992,6.514-3.022,10.153
			c1.97,3.639,6.516,4.994,10.153,3.022c8.539-4.62,18.231-6.967,27.993-6.804c22.795,0.397,42.241,14.24,50.948,33.815
			l-16.027,24.856h-4.448c0.026-0.432,0.054-0.863,0.062-1.297c0.081-4.648-0.845-9.158-2.671-13.287l8.419-7.529
			c3.084-2.759,3.349-7.494,0.591-10.577c-2.758-3.084-7.493-3.349-10.577-0.591l-7.61,6.805
			c-5.417-4.344-12.073-6.771-19.127-6.894c-7.078-0.102-13.798,2.078-19.357,6.226l-7.369-7.066
			c-2.984-2.864-7.727-2.765-10.591,0.223c-2.864,2.985-2.765,7.728,0.223,10.591l8.153,7.818c-1.968,4.062-3.05,8.538-3.131,13.186
			c-0.014,0.804,0.016,1.601,0.064,2.394H57.628c-0.033-0.94-0.049-1.884-0.033-2.836c0.115-6.646,1.363-13.133,3.711-19.282
			c1.476-3.865-0.462-8.195-4.327-9.67c-3.861-1.475-8.195,0.461-9.67,4.327c-2.968,7.777-4.548,15.975-4.693,24.365
			c-0.018,1.038-0.003,2.069,0.025,3.096H12.543c-4.299,0-8.247,2.162-10.562,5.784c-2.315,3.623-2.62,8.115-0.814,12.018
			l16.606,35.883c4.915,10.617,15.649,17.478,27.348,17.478h24.733V407.3c0,10.549,8.583,19.131,19.131,19.131h334.03
			c10.549,0,19.131-8.583,19.131-19.131v-19.543h24.733c11.7,0,22.435-6.861,27.348-17.478l16.606-35.884
			C512.638,330.494,512.334,326.001,510.019,322.378z M307.227,100.909c0.031-0.048,0.089-0.137,0.191-0.214
			c0.105-0.078,0.255-0.143,0.469-0.143c0.215,0,0.364,0.065,0.468,0.143c0.104,0.078,0.163,0.17,0.197,0.223l45.715,70.905
			c-2.349,1.846-4.502,2.913-6.431,3.181c-0.674,0.095-1.542,0.153-2.462,0.217c-4.416,0.303-14.754,1.01-16.529,11.472
			c-0.523,3.085-0.362,6.166-0.219,8.883c0.06,1.128,0.115,2.192,0.115,3.129c0,4.426-3.392,8.184-7.559,8.38
			c-2.2,0.113-4.289-0.674-5.874-2.186c-1.592-1.519-2.468-3.566-2.468-5.764c0-0.951,0.059-2.029,0.121-3.17
			c0.27-4.948,0.638-11.725-4.336-16.058c-2.3-2.003-5.211-3.008-8.687-3.008c-1.307,0-2.695,0.143-4.159,0.427
			c-2.909,0.564-5.42,1.899-7.436,2.971c-0.575,0.306-1.139,0.607-1.688,0.869c-8.975,4.259-20.027,1.532-29.052-3.292
			L307.227,100.909z M102.926,302.847c3.108-3.002,7.177-4.644,11.487-4.644c0.099,0,0.197,0.001,0.296,0.003
			c4.42,0.077,8.544,1.87,11.614,5.05c3.07,3.179,4.719,7.363,4.641,11.782c-0.009,0.525-0.048,1.044-0.108,1.559H97.988
			c-0.083-0.702-0.123-1.414-0.111-2.133C97.954,310.042,99.747,305.917,102.926,302.847z M427.164,407.301
			c0,2.288-1.861,4.149-4.149,4.149H88.985c-2.288,0-4.149-1.861-4.149-4.149v-19.543h342.328V407.301z M480.63,363.987
			c-2.471,5.339-7.868,8.788-13.752,8.788h-32.224H77.345H45.12c-5.883,0-11.28-3.45-13.752-8.789L16.37,331.577h479.258
			L480.63,363.987z"/>
	</g>
</g>
<g>
</g>
<g>
</g>
<g>
</g>
<g>
</g>
<g>
</g>
<g>
</g>
<g>
</g>
<g>
</g>
<g>
</g>
<g>
</g>
<g>
</g>
<g>
</g>
<g>
</g>
<g>
</g>
<g>
</g>
</svg>
